<svg width="597" height="374" viewBox="0 0 597 374" fill="none" xmlns="http://www.w3.org/2000/svg">
<g clip-path="url(#clip0_363_2693)">
<g clip-path="url(#clip1_363_2693)">
<path d="M112.6 296.697H106.322C105.157 291.974 103.285 287.526 100.865 283.445L105.294 278.997C107.577 276.704 107.577 272.967 105.294 270.697L96.8926 262.26C94.6095 259.967 90.8882 259.967 88.628 262.26L84.1988 266.708C80.1578 264.255 75.7059 262.398 71.0028 261.228V254.946C71.0028 251.714 68.3773 249.077 65.1582 249.077H53.2864C50.0673 249.077 47.4418 251.714 47.4418 254.946V261.251C42.7387 262.421 38.3096 264.301 34.2457 266.731L29.8166 262.283C27.5336 259.99 23.8122 259.99 21.552 262.283L13.1504 270.72C10.8673 273.013 10.8673 276.75 13.1504 279.02L17.5795 283.468C15.1366 287.526 13.2873 291.997 12.123 296.719H5.8446C2.62551 296.719 0 299.356 0 302.589V314.511C0 317.744 2.62551 320.38 5.8446 320.38H12.123C13.2873 325.103 15.1594 329.551 17.5795 333.632L13.1504 338.08C10.8673 340.373 10.8673 344.11 13.1504 346.379L21.552 354.817C23.835 357.109 27.5564 357.109 29.8166 354.817L34.2457 350.369C38.2867 352.822 42.7387 354.679 47.4418 355.848V362.153C47.4418 365.386 50.0673 368.023 53.2864 368.023H65.1582C68.3773 368.023 71.0028 365.386 71.0028 362.153V355.848C75.7059 354.679 80.135 352.799 84.1988 350.369L88.628 354.817C90.911 357.109 94.6324 357.109 96.8926 354.817L105.294 346.379C107.577 344.087 107.577 340.35 105.294 338.08L100.865 333.632C103.308 329.574 105.157 325.103 106.322 320.38H112.6C115.819 320.38 118.445 317.744 118.445 314.511V302.589C118.445 299.356 115.819 296.719 112.6 296.719V296.697ZM59.2223 335.283C44.5195 335.283 32.5791 323.315 32.5791 308.527C32.5791 293.739 44.4966 281.771 59.2223 281.771C73.948 281.771 85.8655 293.739 85.8655 308.527C85.8655 323.315 73.948 335.283 59.2223 335.283Z" fill="#D4DEFF"/>
<path d="M182.667 275.169H179.082C178.42 272.463 177.347 269.941 175.954 267.603L178.489 265.058C179.79 263.751 179.79 261.619 178.489 260.312L173.694 255.497C172.393 254.19 170.27 254.19 168.968 255.497L166.434 258.042C164.128 256.643 161.594 255.589 158.9 254.901V251.347C158.9 249.513 157.393 248 155.567 248H148.786C146.96 248 145.453 249.513 145.453 251.347V254.947C142.759 255.612 140.247 256.689 137.919 258.088L135.385 255.543C134.083 254.236 131.96 254.236 130.659 255.543L125.864 260.358C124.563 261.665 124.563 263.797 125.864 265.104L128.398 267.648C127.006 269.964 125.956 272.509 125.271 275.214H121.686C119.86 275.214 118.353 276.728 118.353 278.562V285.371C118.353 287.205 119.86 288.718 121.686 288.718H125.271C125.933 291.424 127.006 293.946 128.398 296.284L125.864 298.829C124.563 300.136 124.563 302.268 125.864 303.575L130.659 308.39C131.96 309.697 134.083 309.697 135.385 308.39L137.919 305.845C140.225 307.243 142.759 308.298 145.453 308.986V312.585C145.453 314.42 146.96 315.933 148.786 315.933H155.567C157.393 315.933 158.9 314.42 158.9 312.585V308.986C161.594 308.321 164.105 307.243 166.434 305.845L168.968 308.39C170.27 309.697 172.393 309.697 173.694 308.39L178.489 303.575C179.79 302.268 179.79 300.136 178.489 298.829L175.954 296.284C177.347 293.969 178.397 291.424 179.082 288.718H182.667C184.493 288.718 186 287.205 186 285.371V278.562C186 276.728 184.493 275.214 182.667 275.214V275.169ZM152.211 297.178C143.809 297.178 137.006 290.346 137.006 281.909C137.006 273.472 143.809 266.64 152.211 266.64C160.612 266.64 167.416 273.472 167.416 281.909C167.416 290.346 160.612 297.178 152.211 297.178Z" fill="#D4DEFF"/>
</g>
<path d="M596.643 267.768C487.969 282.299 507.205 341.843 507.205 341.843C507.205 341.843 562.203 371.764 596.643 267.768Z" fill="#F26457"/>
<mask id="mask0_363_2693" style="mask-type:luminance" maskUnits="userSpaceOnUse" x="505" y="267" width="92" height="79">
<path d="M596.643 267.768C487.969 282.299 507.205 341.843 507.205 341.843C507.205 341.843 562.203 371.764 596.643 267.768Z" fill="white"/>
</mask>
<g mask="url(#mask0_363_2693)">
<path d="M603.947 305.944L547.66 309.544L564.153 295.872L622.952 292.14L622.853 290.29L566.566 293.89L605.864 261.327L604.674 259.907L535.167 317.503L549.115 262.913L547.363 262.483L532.754 319.518L516.261 333.157L530.242 278.566L528.457 278.137L513.849 335.172L497.224 348.91L498.413 350.33L545.248 311.526L604.079 307.794L603.947 305.944Z" fill="#F2B807"/>
</g>
<path d="M583.918 209.676C555.659 225.462 539.265 241.38 530.738 251.42C533.911 244.221 536.72 236.823 539.232 229.359C574.829 221.532 594.263 172.853 594.263 172.853C563.029 193.593 547.66 213.276 541.281 223.151C542.57 218.956 543.727 214.729 544.818 210.469V210.535C569.078 182.232 552.717 130.581 552.717 130.581C541.248 167.767 542.306 193.164 543.727 204.227C542.306 210.337 540.653 216.446 538.802 222.457C543.43 189.333 514.344 153.963 514.344 153.963C518.31 201.684 533.217 225.826 536.224 230.284C533.911 237.054 531.333 243.725 528.457 250.297C532.423 218.824 508.527 184.709 508.527 184.709C508.792 228.336 519.633 253.17 523.566 260.799C519.269 269.485 514.41 277.873 509.056 285.964C517.98 256.044 501.52 219.188 501.52 219.188C493.588 261.526 499.273 287.88 501.752 296.433C488.994 313.474 473.724 328.534 456.471 341.05C455.182 341.975 456.438 344.122 457.727 343.197C474.881 330.747 489.886 315.852 502.611 299.208C502.677 299.439 502.743 299.538 502.743 299.538C503.074 299.042 503.371 298.547 503.669 298.019C539.662 299.142 570.763 258.025 570.763 258.025C538.637 268.626 519.203 281.803 509.287 290.027C515.468 281.011 521.021 271.532 525.879 261.691C561.244 255.746 583.852 209.742 583.852 209.742L583.918 209.676Z" fill="#CAD2FF"/>
<g clip-path="url(#clip2_363_2693)">
<path d="M93.0361 51.8828H498.314C508.659 51.8828 517.054 60.2712 517.054 70.6081V339.037C517.054 349.374 508.659 357.762 498.314 357.762H93.0361C82.691 357.762 74.2959 349.374 74.2959 339.037V70.6081C74.2959 60.2712 82.691 51.8828 93.0361 51.8828Z" fill="#9FA8F7"/>
<path d="M503.239 69.6836H88.1445V339.962H503.239V69.6836Z" fill="#CAD2FF"/>
<path d="M25.7432 335.734V348.02C25.7432 361.956 37.1459 373.35 51.0937 373.35H540.323C554.27 373.35 565.673 361.956 565.673 348.02V335.734H25.7432Z" fill="#9FA8F7"/>
<path d="M224.02 335.734V341.415C224.02 347.822 229.275 353.073 235.687 353.073H355.664C362.076 353.073 367.331 347.822 367.331 341.415V335.734H224.02Z" fill="#7387F9"/>
<path d="M464.899 97.1602H126.451V313.871H464.899V97.1602Z" fill="#F3F7FF"/>
<path d="M464.899 97.1602H126.451V122.094H464.899V97.1602Z" fill="#E5EAFF"/>
<path d="M143.076 115.027C146.051 115.027 148.463 112.617 148.463 109.644C148.463 106.671 146.051 104.261 143.076 104.261C140.101 104.261 137.688 106.671 137.688 109.644C137.688 112.617 140.101 115.027 143.076 115.027Z" fill="#F25D07"/>
<path d="M162.642 115.027C165.618 115.027 168.03 112.617 168.03 109.644C168.03 106.671 165.618 104.261 162.642 104.261C159.667 104.261 157.255 106.671 157.255 109.644C157.255 112.617 159.667 115.027 162.642 115.027Z" fill="#F2B807"/>
<path d="M182.242 115.027C185.217 115.027 187.629 112.617 187.629 109.644C187.629 106.671 185.217 104.261 182.242 104.261C179.267 104.261 176.854 106.671 176.854 109.644C176.854 112.617 179.267 115.027 182.242 115.027Z" fill="#9FA8F7"/>
<path d="M442.16 289.399H300.369V294.287H442.16V289.399Z" fill="#9FA8F7"/>
<path d="M300.369 238.705V282.992H316.564V238.705H300.369Z" fill="#9FA8F7"/>
<path d="M325.488 225.561V282.992H341.683V225.561H325.488Z" fill="#303AF2"/>
<path d="M350.607 213.937V282.992H366.802V213.937H350.607Z" fill="#E5EAFF"/>
<path d="M375.726 200.991V282.992H391.921V200.991H375.726Z" fill="#F25D07"/>
<path d="M400.845 188.309V282.992H417.04V188.309H400.845Z" fill="#F2B807"/>
<path d="M425.964 175.726V282.959H442.16V175.726H425.964Z" fill="#F26457"/>
<path d="M441.234 148.349C435.781 148.811 430.294 149.307 424.841 149.769C424.047 149.835 423.254 149.901 422.494 149.967C421.403 150.066 421.106 151.288 421.569 151.949L424.642 157.431C424.279 157.629 423.882 157.827 423.519 158.025C412.545 163.937 401.572 169.848 390.599 175.76C377.379 182.893 364.158 189.994 350.937 197.127C339.501 203.27 328.066 209.446 316.63 215.588C311.077 218.594 305.293 221.335 299.873 224.604C299.807 224.637 299.707 224.703 299.641 224.736C297.857 225.694 299.443 228.402 301.228 227.444C305.789 224.968 310.383 222.524 314.944 220.047L347.864 202.312C361.084 195.179 374.305 188.078 387.525 180.945C398.961 174.802 410.397 168.627 421.833 162.484C423.287 161.691 424.741 160.932 426.196 160.172L429.369 165.885C429.6 166.744 430.988 167.206 431.649 166.216C434.789 161.493 437.896 156.804 441.036 152.081C441.466 151.42 441.928 150.76 442.358 150.099C442.854 149.34 442.16 148.217 441.267 148.283L441.234 148.349Z" fill="#303AF2"/>
<path d="M209.741 151.223H144.299V157.464H209.741V151.223Z" fill="#CAD2FF"/>
<path d="M265.862 163.706H144.299V169.948H265.862V163.706Z" fill="#E5EAFF"/>
<path d="M265.862 176.189H144.299V182.431H265.862V176.189Z" fill="#E5EAFF"/>
<path d="M265.862 188.673H144.299V194.915H265.862V188.673Z" fill="#E5EAFF"/>
<path d="M237.868 201.156H144.299V207.398H237.868V201.156Z" fill="#E5EAFF"/>
<path d="M209.741 238.145H144.299V244.386H209.741V238.145Z" fill="#CAD2FF"/>
<path d="M265.862 250.628H144.299V256.87H265.862V250.628Z" fill="#E5EAFF"/>
<path d="M265.862 263.111H144.299V269.353H265.862V263.111Z" fill="#E5EAFF"/>
<path d="M265.862 275.595H144.299V281.836H265.862V275.595Z" fill="#E5EAFF"/>
<path d="M237.868 288.078H144.299V294.32H237.868V288.078Z" fill="#E5EAFF"/>
</g>
<g clip-path="url(#clip3_363_2693)">
<path d="M494.206 88.6396H483.828C476.417 88.6396 470.409 94.6427 470.409 102.048V119.881C470.409 127.287 476.417 133.29 483.828 133.29H494.206C501.617 133.29 507.625 127.287 507.625 119.881V102.048C507.625 94.6427 501.617 88.6396 494.206 88.6396Z" fill="#303AF2"/>
<path d="M523.489 76.057H523.456C527.026 70.0795 529.108 63.1112 529.108 55.6144C529.108 33.5206 511.161 19.584 489.05 19.584C466.938 19.584 448.991 33.5206 448.991 55.6144C448.991 63.0781 451.073 70.0464 454.643 76.024H454.61C454.61 76.024 454.841 76.3873 455.271 77.0147C455.502 77.378 455.734 77.7743 455.965 78.1046C459.336 83.5537 468.062 86.9553 470.475 103.534H507.658C510.07 86.9553 518.796 83.5207 522.167 78.1046C522.399 77.7413 522.63 77.378 522.861 76.9817C523.258 76.3542 523.522 75.991 523.522 75.991L523.489 76.057Z" fill="#F2B807"/>
<path d="M470.442 106.077H507.625C510.831 106.077 510.831 101.09 507.625 101.09H470.442C467.236 101.09 467.236 106.077 470.442 106.077Z" fill="#CAD2FF"/>
<path d="M470.442 114.069H507.625C510.831 114.069 510.831 109.082 507.625 109.082H470.442C467.236 109.082 467.236 114.069 470.442 114.069Z" fill="#CAD2FF"/>
<path d="M470.442 122.061H507.625C510.831 122.061 510.831 117.074 507.625 117.074H470.442C467.236 117.074 467.236 122.061 470.442 122.061Z" fill="#CAD2FF"/>
<path d="M483.894 63.8047H481.911V101.09H483.894V63.8047Z" fill="#303AF2"/>
<path d="M483.927 65.3238H476.358C472.193 65.3238 468.789 61.9222 468.789 57.761C468.789 53.5998 472.193 50.1982 476.358 50.1982C480.522 50.1982 483.927 53.5998 483.927 57.761V65.3238ZM476.358 52.2128C473.284 52.2128 470.805 54.7227 470.805 57.761C470.805 60.7993 473.317 63.3092 476.358 63.3092H481.911V57.761C481.911 54.6897 479.399 52.2128 476.358 52.2128Z" fill="#303AF2"/>
<path d="M496.123 63.8047H494.14V101.09H496.123V63.8047Z" fill="#303AF2"/>
<path d="M501.708 65.3238H494.14V57.761C494.14 53.5998 497.544 50.1982 501.708 50.1982C503.725 50.1982 505.642 50.9908 507.063 52.4109C508.484 53.831 509.277 55.7465 509.277 57.761C509.277 61.9222 505.873 65.3238 501.708 65.3238ZM496.156 63.3423H501.708C504.782 63.3423 507.261 60.8323 507.261 57.794C507.261 56.3079 506.666 54.9208 505.642 53.864C504.584 52.8072 503.196 52.2458 501.708 52.2458C498.635 52.2458 496.156 54.7557 496.156 57.794V63.3423Z" fill="#303AF2"/>
<g opacity="0.1">
<path d="M507.063 115.555H507.162C507.162 115.555 507.228 115.258 507.228 115.093C507.162 115.258 507.096 115.39 507.03 115.555H507.063Z" fill="#303AF2"/>
</g>
<path opacity="0.1" d="M484.555 24.2073C508.55 24.2073 528.018 39.3329 528.018 63.3091C528.018 63.8375 527.918 64.3659 527.918 64.8613C528.646 61.889 529.108 58.7847 529.108 55.5812C529.108 33.4874 511.161 19.5508 489.05 19.5508C476.854 19.5508 465.947 23.811 458.609 31.3077C465.848 26.7172 474.838 24.2073 484.588 24.2073H484.555Z" fill="#303AF2"/>
</g>
<g clip-path="url(#clip4_363_2693)">
<path d="M489.016 0C488.388 0 487.826 0.297226 487.463 0.792604C487.165 1.15588 486.967 1.58521 486.967 2.08059V14.5971C486.967 15.0925 487.165 15.5218 487.463 15.8851C487.859 16.3475 488.388 16.7107 489.016 16.6777C489.644 16.6777 490.206 16.3805 490.569 15.8851C490.867 15.5218 491.065 15.0925 491.065 14.5971V2.08059C491.065 1.58521 490.867 1.15588 490.569 0.792604C490.173 0.330252 489.644 0 489.016 0Z" fill="#CAD2FF"/>
<path d="M509.938 2.57616C508.847 2.27893 507.69 2.77431 507.327 3.86414C506.17 7.33178 504.98 10.7994 503.823 14.234C503.658 14.7294 503.493 15.2248 503.327 15.6872C502.997 16.7109 503.559 17.9989 504.616 18.2961C505.707 18.5934 506.864 18.098 507.227 17.0082C508.384 13.5405 509.574 10.0729 510.731 6.63826C510.896 6.14288 511.061 5.6475 511.227 5.18515C511.557 4.16137 510.995 2.87339 509.938 2.57616Z" fill="#CAD2FF"/>
<path d="M528.281 15.5553C529.041 14.7957 529.141 13.4087 528.314 12.6491C527.488 11.8895 526.232 11.7905 525.406 12.6161C522.795 15.159 520.151 17.702 517.539 20.2449C517.176 20.6082 516.812 20.9714 516.416 21.3347C515.656 22.0943 515.556 23.4814 516.383 24.2409C517.209 25.0005 518.465 25.0996 519.291 24.274C521.902 21.731 524.546 19.1881 527.157 16.6451C527.521 16.2819 527.885 15.9186 528.281 15.5553Z" fill="#CAD2FF"/>
<path d="M540.577 25.7263C540.015 24.7686 538.792 24.3393 537.767 24.9007L528.149 30.1187C527.686 30.3499 527.257 30.6141 526.794 30.8453C525.836 31.3737 525.373 32.6947 525.968 33.6524C526.563 34.6101 527.753 35.0394 528.777 34.478C531.983 32.7277 535.189 30.9774 538.395 29.26C538.858 29.0289 539.288 28.7647 539.75 28.5335C540.709 28.0051 541.171 26.6841 540.577 25.7263Z" fill="#CAD2FF"/>
<path d="M474.242 14.2671L470.739 3.89719C470.375 2.80736 469.185 2.27896 468.128 2.60921C467.07 2.90644 466.475 4.19442 466.839 5.2182C467.004 5.71358 467.169 6.20895 467.334 6.67131C468.491 10.1389 469.681 13.6066 470.838 17.0412C471.201 18.131 472.391 18.6594 473.449 18.3292C474.506 18.032 475.101 16.744 474.738 15.7202C474.573 15.2248 474.407 14.7294 474.242 14.2671Z" fill="#CAD2FF"/>
<path d="M460.526 20.2116C457.915 17.6686 455.27 15.1257 452.659 12.5827C451.833 11.7901 450.544 11.8562 449.751 12.6158C448.925 13.3754 449.024 14.7954 449.784 15.522C450.147 15.8853 450.511 16.2485 450.908 16.6118C453.519 19.1548 456.163 21.6977 458.774 24.2406C459.6 25.0332 460.889 24.9672 461.682 24.2076C462.509 23.448 462.41 22.0279 461.649 21.3014C461.286 20.9381 460.922 20.5748 460.526 20.2116Z" fill="#CAD2FF"/>
<path d="M451.271 30.8453C450.809 30.6141 450.379 30.3499 449.916 30.1187C446.71 28.3684 443.504 26.618 440.298 24.9007C439.274 24.3393 438.084 24.7686 437.489 25.7263C436.927 26.6841 437.357 28.0051 438.315 28.5335C438.778 28.7647 439.208 29.0289 439.67 29.26C442.876 31.0104 446.082 32.7607 449.288 34.478C450.313 35.0394 451.503 34.6101 452.098 33.6524C452.659 32.6947 452.23 31.3737 451.271 30.8453Z" fill="#CAD2FF"/>
</g>
<path d="M577.208 139.663C575.688 152.708 564.682 153.897 564.682 153.897C564.682 153.897 575.688 155.086 577.208 168.131C578.729 155.086 589.735 153.897 589.735 153.897C589.735 153.897 578.729 152.708 577.208 139.663Z" fill="#303AF2"/>
<path d="M536.026 16.6445C533.713 36.3936 517.021 38.21 517.021 38.21C517.021 38.21 533.713 39.9933 536.026 59.7754C538.34 40.0264 555.031 38.21 555.031 38.21C555.031 38.21 538.34 36.4266 536.026 16.6445Z" fill="#303AF2"/>
<path d="M517.021 97.3584C515.931 106.771 507.965 107.629 507.965 107.629C507.965 107.629 515.931 108.488 517.021 117.9C518.112 108.488 526.078 107.629 526.078 107.629C526.078 107.629 518.112 106.771 517.021 97.3584Z" fill="#303AF2"/>
<path d="M423.981 16.6445C422.891 26.0567 414.925 26.9154 414.925 26.9154C414.925 26.9154 422.891 27.774 423.981 37.1862C425.072 27.774 433.038 26.9154 433.038 26.9154C433.038 26.9154 425.072 26.0567 423.981 16.6445Z" fill="#303AF2"/>
<path d="M172.723 30.2178C170.41 49.9668 153.719 51.7832 153.719 51.7832C153.719 51.7832 170.41 53.5666 172.723 73.3486C175.037 53.5996 191.728 51.7832 191.728 51.7832C191.728 51.7832 175.037 49.9998 172.723 30.2178Z" fill="#303AF2"/>
</g>
<defs>
<clipPath id="clip0_363_2693">
<rect width="597" height="374" fill="white"/>
</clipPath>
<clipPath id="clip1_363_2693">
<rect width="186" height="120" fill="white" transform="translate(0 248)"/>
</clipPath>
<clipPath id="clip2_363_2693">
<rect width="539.93" height="321.467" fill="white" transform="translate(25.7432 51.8828)"/>
</clipPath>
<clipPath id="clip3_363_2693">
<rect width="80.1169" height="113.739" fill="white" transform="translate(448.991 19.5508)"/>
</clipPath>
<clipPath id="clip4_363_2693">
<rect width="103.603" height="34.7286" fill="white" transform="translate(437.238)"/>
</clipPath>
</defs>
</svg>
