<svg width="180" height="34" viewBox="0 0 180 34" fill="none" xmlns="http://www.w3.org/2000/svg">
<path fill-rule="evenodd" clip-rule="evenodd" d="M15.8432 3.24316H1.39771V14.7557C1.39771 23.1615 7.70383 30.0945 15.8432 31.0817V24.4206C11.3527 23.4958 7.97631 19.5201 7.97631 14.7557V9.82177H15.8432V3.24316Z" fill="white"/>
<path fill-rule="evenodd" clip-rule="evenodd" d="M17.9402 31.1914H32.3857V19.6788C32.3857 11.273 26.0796 4.34004 17.9402 3.35282V10.0139C22.4307 10.9388 25.8071 14.9145 25.8071 19.6788V24.6128H17.9402V31.1914Z" fill="#59CCFB"/>
<path d="M45.9925 7.70214H52.5883L57.1253 18.7587H57.3541L61.8911 7.70214H68.4869V27.2227H63.3017V15.9374H63.1492L58.8029 27.0702H55.6765L51.3302 15.8611H51.1777V27.2227H45.9925V7.70214ZM70.9984 27.2227V7.70214H85.0669V11.9723H76.2979V15.3273H84.3425V19.5975H76.2979V22.9525H85.0288V27.2227H70.9984ZM98.218 13.8023C98.1672 13.1669 97.9289 12.6712 97.5032 12.3154C97.0838 11.9595 96.4452 11.7816 95.5873 11.7816C95.0409 11.7816 94.5929 11.8483 94.2434 11.9818C93.9003 12.1089 93.6461 12.2836 93.4809 12.506C93.3157 12.7284 93.2299 12.9826 93.2235 13.2685C93.2108 13.5036 93.2521 13.7165 93.3474 13.9071C93.4491 14.0914 93.608 14.2598 93.824 14.4123C94.0401 14.5585 94.3165 14.6919 94.6532 14.8126C94.99 14.9334 95.3903 15.0414 95.8542 15.1367L97.4555 15.4798C98.5357 15.7086 99.4603 16.0104 100.229 16.3853C100.998 16.7602 101.627 17.2019 102.116 17.7102C102.606 18.2122 102.965 18.7777 103.193 19.4068C103.429 20.0359 103.549 20.7222 103.556 21.4656C103.549 22.7492 103.228 23.8358 102.593 24.7254C101.958 25.615 101.049 26.2917 99.867 26.7556C98.6914 27.2195 97.2776 27.4514 95.6255 27.4514C93.9289 27.4514 92.4483 27.2004 91.1838 26.6984C89.9256 26.1964 88.9471 25.4244 88.2481 24.3823C87.5555 23.3338 87.206 21.993 87.1996 20.36H92.2322C92.264 20.9573 92.4133 21.4593 92.6802 21.866C92.9471 22.2726 93.322 22.5808 93.8049 22.7905C94.2942 23.0002 94.8756 23.105 95.5492 23.105C96.1147 23.105 96.5881 23.0351 96.9694 22.8954C97.3507 22.7556 97.6398 22.5618 97.8368 22.3139C98.0338 22.0661 98.1354 21.7833 98.1418 21.4656C98.1354 21.167 98.0369 20.9064 97.8463 20.684C97.662 20.4553 97.357 20.2519 96.9313 20.074C96.5055 19.8898 95.9305 19.7182 95.2061 19.5593L93.2616 19.1399C91.5333 18.765 90.1703 18.1391 89.1726 17.2622C88.1814 16.379 87.6889 15.1748 87.6952 13.6498C87.6889 12.4107 88.0193 11.3273 88.6865 10.3996C89.3601 9.46546 90.291 8.73789 91.4793 8.21684C92.6739 7.69578 94.0432 7.43525 95.5873 7.43525C97.1632 7.43525 98.5262 7.69896 99.6763 8.22637C100.826 8.75378 101.713 9.49724 102.336 10.4567C102.965 11.4099 103.282 12.5251 103.289 13.8023H98.218ZM116.094 13.8023C116.044 13.1669 115.805 12.6712 115.379 12.3154C114.96 11.9595 114.322 11.7816 113.464 11.7816C112.917 11.7816 112.469 11.8483 112.12 11.9818C111.777 12.1089 111.522 12.2836 111.357 12.506C111.192 12.7284 111.106 12.9826 111.1 13.2685C111.087 13.5036 111.128 13.7165 111.224 13.9071C111.325 14.0914 111.484 14.2598 111.7 14.4123C111.916 14.5585 112.193 14.6919 112.53 14.8126C112.866 14.9334 113.267 15.0414 113.731 15.1367L115.332 15.4798C116.412 15.7086 117.337 16.0104 118.106 16.3853C118.874 16.7602 119.503 17.2019 119.993 17.7102C120.482 18.2122 120.841 18.7777 121.07 19.4068C121.305 20.0359 121.426 20.7222 121.432 21.4656C121.426 22.7492 121.105 23.8358 120.469 24.7254C119.834 25.615 118.925 26.2917 117.743 26.7556C116.568 27.2195 115.154 27.4514 113.502 27.4514C111.805 27.4514 110.325 27.2004 109.06 26.6984C107.802 26.1964 106.823 25.4244 106.124 24.3823C105.432 23.3338 105.082 21.993 105.076 20.36H110.109C110.14 20.9573 110.29 21.4593 110.557 21.866C110.823 22.2726 111.198 22.5808 111.681 22.7905C112.171 23.0002 112.752 23.105 113.426 23.105C113.991 23.105 114.464 23.0351 114.846 22.8954C115.227 22.7556 115.516 22.5618 115.713 22.3139C115.91 22.0661 116.012 21.7833 116.018 21.4656C116.012 21.167 115.913 20.9064 115.723 20.684C115.538 20.4553 115.233 20.2519 114.808 20.074C114.382 19.8898 113.807 19.7182 113.082 19.5593L111.138 19.1399C109.41 18.765 108.047 18.1391 107.049 17.2622C106.058 16.379 105.565 15.1748 105.572 13.6498C105.565 12.4107 105.896 11.3273 106.563 10.3996C107.236 9.46546 108.167 8.73789 109.356 8.21684C110.55 7.69578 111.92 7.43525 113.464 7.43525C115.04 7.43525 116.403 7.69896 117.553 8.22637C118.703 8.75378 119.589 9.49724 120.212 10.4567C120.841 11.4099 121.159 12.5251 121.165 13.8023H116.094ZM127.759 27.2227H122.04L128.483 7.70214H135.727L142.17 27.2227H136.451L132.181 13.0779H132.029L127.759 27.2227ZM126.691 19.5212H137.443V23.4863H126.691V19.5212ZM155.81 14.1454C155.727 13.8087 155.597 13.5132 155.419 13.259C155.241 12.9985 155.019 12.7793 154.752 12.6013C154.491 12.4171 154.186 12.2804 153.837 12.1915C153.494 12.0962 153.116 12.0485 152.702 12.0485C151.813 12.0485 151.054 12.2614 150.424 12.6871C149.802 13.1129 149.325 13.726 148.995 14.5267C148.671 15.3273 148.509 16.2932 148.509 17.4243C148.509 18.5681 148.664 19.5466 148.976 20.36C149.287 21.1733 149.751 21.7961 150.367 22.2281C150.984 22.6602 151.749 22.8763 152.664 22.8763C153.471 22.8763 154.142 22.7587 154.676 22.5236C155.216 22.2885 155.619 21.9549 155.886 21.5228C156.153 21.0907 156.286 20.5824 156.286 19.9978L157.201 20.0931H152.741V16.3186H161.395V19.0256C161.395 20.8048 161.017 22.3266 160.261 23.5912C159.511 24.8493 158.475 25.8152 157.154 26.4887C155.838 27.1559 154.329 27.4895 152.626 27.4895C150.726 27.4895 149.058 27.086 147.622 26.279C146.186 25.472 145.065 24.3219 144.258 22.8286C143.457 21.3354 143.057 19.5593 143.057 17.5005C143.057 15.8865 143.301 14.4568 143.791 13.2113C144.286 11.9659 144.972 10.9143 145.849 10.0564C146.726 9.19223 147.74 8.54091 148.89 8.10246C150.04 7.65766 151.273 7.43525 152.588 7.43525C153.745 7.43525 154.818 7.60047 155.81 7.93089C156.807 8.25496 157.687 8.71883 158.45 9.32249C159.219 9.9198 159.838 10.6283 160.309 11.448C160.779 12.2677 161.065 13.1669 161.166 14.1454H155.81ZM163.866 27.2227V7.70214H177.935V11.9723H169.166V15.3273H177.21V19.5975H169.166V22.9525H177.897V27.2227H163.866Z" fill="white"/>
</svg>
